<svg width="32" height="33" viewBox="0 0 32 33" fill="none" xmlns="http://www.w3.org/2000/svg">
<path d="M31.6667 31.5219C31.6644 31.5201 31.6622 31.5183 31.6601 31.5164C31.6062 31.4698 31.5867 31.4083 31.579 31.381C31.5604 31.3148 31.5549 31.229 31.5549 31.141C31.5549 30.3416 31.2321 28.685 30.8323 27.469L31.0205 27.4072L30.8323 27.469C29.9859 24.8947 28.5914 22.7401 26.5426 20.8442C25.0986 19.5079 23.4123 18.4836 21.369 17.7053L21.369 17.7053L21.1931 17.6383L20.8595 17.5111L21.1439 17.2952L21.5472 16.9892C23.204 15.7313 24.4259 13.7294 24.8603 11.5484C24.9305 11.1956 24.9675 10.6099 24.9674 10.0044C24.9673 9.39979 24.9301 8.79678 24.859 8.41078L25.0539 8.37487L24.859 8.41077C24.1869 4.76173 21.3036 1.86347 17.7121 1.21994C17.4565 1.17414 16.9675 1.13258 16.4844 1.10896C15.9978 1.08518 15.5466 1.08112 15.3608 1.10377C13.7505 1.30017 12.4596 1.75912 11.2503 2.56001C9.25421 3.88216 7.84697 6.02346 7.40728 8.41077L7.40727 8.41078C7.33616 8.79678 7.29898 9.39979 7.29885 10.0044C7.29872 10.6099 7.33576 11.1956 7.406 11.5484C7.66066 12.8271 8.20413 14.106 8.91206 15.0985C9.36409 15.7322 10.1617 16.5659 10.7171 16.9876L11.1224 17.2952L11.4068 17.5111L11.0731 17.6383L10.8973 17.7053L10.8973 17.7053C8.85395 18.4836 7.16764 19.5079 5.72368 20.8442L5.58908 20.6987L5.72367 20.8442C2.64647 23.6918 0.93922 27.296 0.678944 31.4945C0.68283 31.5072 0.685148 31.5185 0.686485 31.5257C0.689495 31.5418 0.691752 31.5598 0.693592 31.5774C0.708272 31.7177 0.708213 31.9518 0.694241 32.1072M31.6667 31.5219L0.67724 32.11C0.677099 32.1087 0.676958 32.1072 0.676818 32.1057L0.694241 32.1072M31.6667 31.5219C31.6698 31.5839 31.6696 31.6758 31.6649 31.802L31.6539 32.0951L30.6019 32.1092L29.5623 32.1231V32.0262C29.5623 31.5109 29.4365 30.3914 29.3063 29.7337C28.7839 27.0946 27.5242 24.7384 25.6098 22.8186C21.5285 18.7258 15.4688 17.7026 10.2582 20.226C7.21583 21.6993 4.64324 24.5567 3.52252 27.7093C3.02497 29.1089 2.70398 30.7927 2.70398 32.025V32.1233H1.66787H0.692724M31.6667 31.5219L0.692724 32.1233M0.694241 32.1072C0.693751 32.1127 0.693246 32.1181 0.692724 32.1233M0.694241 32.1072C0.694243 32.1072 0.694246 32.1072 0.694248 32.1071L0.676812 32.1056L0.692724 32.1233M0.677821 32.1146C0.677811 32.1147 0.677673 32.1139 0.677451 32.112L0.677821 32.1146ZM10.7093 5.85274L10.8684 5.9708L10.7093 5.85274C9.57848 7.37707 9.12063 9.20544 9.41604 11.0322C10.0177 14.7524 13.5109 17.2972 17.2011 16.697C20.9119 16.0935 23.4484 12.59 22.8502 8.89069C22.2498 5.17767 18.7163 2.60406 15.054 3.2228C13.3136 3.51682 11.7339 4.47161 10.7093 5.85274Z" fill="#343434" stroke="white" stroke-width="0.396333"/>
</svg>
