<svg width="8" height="13" viewBox="0 0 8 13" fill="none" xmlns="http://www.w3.org/2000/svg">
<path fill-rule="evenodd" clip-rule="evenodd" d="M6.7859 0.309174C6.9734 0.496701 7.07874 0.75101 7.07874 1.01617C7.07874 1.28134 6.9734 1.53565 6.7859 1.72318L2.49411 6.00018L6.7859 10.3062C6.9734 10.4937 7.07874 10.748 7.07874 11.0132C7.07874 11.2783 6.9734 11.5327 6.7859 11.7202C6.69378 11.8129 6.58422 11.8864 6.46355 11.9366C6.34287 11.9868 6.21347 12.0127 6.08277 12.0127C5.95207 12.0127 5.82267 11.9868 5.702 11.9366C5.58132 11.8864 5.47176 11.8129 5.37964 11.7202L0.378745 6.70419C0.192393 6.51585 0.0878906 6.2616 0.0878906 5.99667C0.0878906 5.73175 0.192393 5.47752 0.378745 5.28918L5.37964 0.305176C5.47189 0.212495 5.58162 0.139031 5.70245 0.0890198C5.82329 0.0390081 5.95282 0.0134525 6.08359 0.0138245C6.21437 0.0141964 6.34379 0.0404882 6.46434 0.0911865C6.58489 0.141885 6.69418 0.215969 6.7859 0.309174Z" fill="#333333"/>
</svg>
