<svg width="8" height="13" viewBox="0 0 8 13" fill="none" xmlns="http://www.w3.org/2000/svg">
<path fill-rule="evenodd" clip-rule="evenodd" d="M0.374256 12.6908C0.186751 12.5033 0.081418 12.249 0.081418 11.9838C0.081418 11.7187 0.186751 11.4644 0.374256 11.2768L4.66604 6.99982L0.374256 2.69382C0.186751 2.50629 0.081418 2.25198 0.081418 1.98682C0.081418 1.72165 0.186751 1.46734 0.374256 1.27982C0.466378 1.18711 0.575939 1.11356 0.69661 1.06335C0.817282 1.01315 0.946684 0.987305 1.07739 0.987305C1.20809 0.987305 1.33749 1.01315 1.45816 1.06335C1.57883 1.11356 1.68839 1.18711 1.78051 1.27982L6.78141 6.29581C6.96776 6.48415 7.07227 6.7384 7.07227 7.00333C7.07227 7.26825 6.96776 7.52248 6.78141 7.71082L1.78051 12.6948C1.68826 12.7875 1.57854 12.861 1.4577 12.911C1.33687 12.961 1.20734 12.9865 1.07656 12.9862C0.945784 12.9858 0.816363 12.9595 0.695817 12.9088C0.57527 12.8581 0.465977 12.784 0.374256 12.6908Z" fill="#333333"/>
</svg>
