<svg width="35" height="29" viewBox="0 0 35 29" fill="none" xmlns="http://www.w3.org/2000/svg">
<path fill-rule="evenodd" clip-rule="evenodd" d="M9.32918 0.936958C5.85217 1.32973 2.84903 3.60235 1.55039 6.82333C0.71205 8.90267 0.645441 11.0225 1.34945 13.2155C1.57023 13.9031 2.23311 15.2845 2.71672 16.0646C4.97022 19.6999 9.7192 23.9453 15.5185 27.5089C16.9735 28.4031 17.4153 28.6396 17.63 28.6396C17.9163 28.6396 20.4505 27.1259 22.345 25.8233C28.8761 21.3327 33.0285 16.6652 34.0565 12.6588C34.3356 11.5713 34.5599 9.63373 34.395 9.73571C34.3607 9.75686 34.3156 9.55239 34.2919 9.26761C34.2019 8.18812 33.732 6.73164 33.1399 5.69682C30.8891 1.76285 26.1951 -0.0430455 21.8828 1.36582C20.4126 1.84616 18.8025 2.87371 17.926 3.89105L17.641 4.22193L17.0218 3.60936C15.6079 2.21038 13.9258 1.34571 11.949 1.00154C11.3848 0.903294 9.94182 0.86773 9.32918 0.936958ZM9.52567 2.61226C8.17987 2.81248 7.13765 3.17781 6.19963 3.77807C4.0001 5.18556 2.69328 7.4515 2.56792 10.0754C2.50668 11.3566 2.78432 12.5289 3.49828 14.0037C4.85763 16.8114 7.72782 19.8642 12.0628 23.1129C13.2221 23.9817 15.5723 25.568 16.9417 26.406L17.6118 26.8161L18.1862 26.4722C24.0115 22.9846 28.6533 18.9735 30.9476 15.4447C31.776 14.1706 32.363 12.7485 32.5854 11.4769C32.7782 10.3747 32.6379 8.96483 32.2174 7.77943C31.3308 5.27955 29.3614 3.4893 26.723 2.78471C26.1659 2.6359 25.9644 2.61665 24.917 2.61213C23.8973 2.60767 23.6585 2.62706 23.1487 2.75556C21.262 3.23119 19.7731 4.1939 18.6548 5.66112C18.1474 6.32701 18.0001 6.43678 17.6143 6.43678C17.2282 6.43678 17.0811 6.32688 16.5726 5.65896C15.3898 4.10529 13.7066 3.05939 11.818 2.7048C11.3986 2.62601 9.85262 2.56366 9.52567 2.61226ZM0.871137 10.3665C0.871137 10.7087 0.882206 10.8487 0.895698 10.6776C0.90919 10.5065 0.90919 10.2265 0.895698 10.0554C0.882206 9.88425 0.871137 10.0243 0.871137 10.3665Z" fill="#DA6265"/>
<path d="M5.69991 18.8584L17.596 27.8906L29.8774 18.8766C32.3856 17.0357 33.8672 14.1105 33.8672 10.9993V10.0205C33.8672 6.16814 31.2759 2.79768 27.553 1.80766C25.3696 1.22706 23.0411 1.65416 21.2059 2.9718L17.596 5.5637L15.7811 3.82622C13.8697 1.99636 11.1596 1.2628 8.58616 1.87871C4.64609 2.8217 1.86719 6.34416 1.86719 10.3955V11.136C1.86719 14.1678 3.28528 17.025 5.69991 18.8584Z" fill="#DA6265"/>
</svg>
