<svg width="22" height="30" viewBox="0 0 22 30" fill="none" xmlns="http://www.w3.org/2000/svg">
<path fill-rule="evenodd" clip-rule="evenodd" d="M10.7948 7.6621C11.2961 7.64877 11.795 7.73583 12.2621 7.91818C12.7293 8.10053 13.1552 8.37448 13.5149 8.7239C13.8745 9.07332 14.1607 9.49116 14.3564 9.95283C14.5522 10.4145 14.6537 10.9106 14.6548 11.4121C14.6548 12.4385 14.2471 13.4228 13.5213 14.1486C12.7956 14.8744 11.8112 15.2821 10.7848 15.2821C9.75844 15.2821 8.77409 14.8744 8.04833 14.1486C7.32256 13.4228 6.91483 12.4385 6.91483 11.4121C6.91591 10.9089 7.01798 10.4111 7.215 9.94804C7.41201 9.48502 7.69996 9.06626 8.06178 8.71656C8.4236 8.36686 8.85193 8.09335 9.32139 7.91222C9.79085 7.7311 10.2919 7.64604 10.7948 7.6621ZM20.5048 10.5021C20.5038 9.23707 20.2503 7.98495 19.7594 6.81907C19.2684 5.6532 18.5498 4.59699 17.6455 3.71231C16.7413 2.82762 15.6696 2.13224 14.4933 1.66687C13.3169 1.2015 12.0596 0.975499 10.7948 1.0021C9.52732 0.979605 8.26785 1.20785 7.08885 1.67372C5.90984 2.1396 4.83454 2.8339 3.92475 3.71674C3.01497 4.59957 2.28865 5.65351 1.78755 6.81798C1.28645 7.98246 1.02044 9.23449 1.00483 10.5021C0.985762 10.7604 1.0233 11.0198 1.11483 11.2621H1.00483C1.00483 16.4121 10.7948 28.3121 10.7948 28.3121C10.7948 28.3121 20.5048 16.3621 20.5048 11.2121V10.5021Z" stroke="#343434" stroke-width="1.17" stroke-miterlimit="10"/>
</svg>
